<svg width="101" height="101" viewBox="0 0 101 101" fill="none" xmlns="http://www.w3.org/2000/svg">
<mask id="mask0_1253_9915" style="mask-type:alpha" maskUnits="userSpaceOnUse" x="0" y="0" width="101" height="101">
<rect x="0.5" y="0.5" width="100" height="100" fill="#D9D9D9"/>
</mask>
<g mask="url(#mask0_1253_9915)">
<path d="M77.0625 92.4795L81.8542 87.6878L63.3125 69.1462L58.5208 73.9378C55.9514 76.5073 54.6667 79.5975 54.6667 83.2087C54.6667 86.8198 55.9514 89.91 58.5208 92.4795C61.0903 95.0489 64.1806 96.3337 67.7917 96.3337C71.4028 96.3337 74.4931 95.0489 77.0625 92.4795ZM87.6875 81.8545L92.4792 77.0628C95.0486 74.4934 96.3333 71.4031 96.3333 67.792C96.3333 64.1809 95.0486 61.0906 92.4792 58.5212C89.9097 55.9517 86.8195 54.667 83.2083 54.667C79.5972 54.667 76.507 55.9517 73.9375 58.5212L69.1458 63.3128L87.6875 81.8545ZM29.6667 38.0003H71.3333V29.667H29.6667V38.0003ZM50.5 18.2087C51.4028 18.2087 52.1493 17.9135 52.7396 17.3232C53.3299 16.733 53.625 15.9864 53.625 15.0837C53.625 14.1809 53.3299 13.4344 52.7396 12.8441C52.1493 12.2538 51.4028 11.9587 50.5 11.9587C49.5972 11.9587 48.8507 12.2538 48.2604 12.8441C47.6701 13.4344 47.375 14.1809 47.375 15.0837C47.375 15.9864 47.6701 16.733 48.2604 17.3232C48.8507 17.9135 49.5972 18.2087 50.5 18.2087ZM46.8542 88.0003H21.3333C19.0417 88.0003 17.0799 87.1843 15.4479 85.5524C13.816 83.9205 13 81.9587 13 79.667V21.3337C13 19.042 13.816 17.0802 15.4479 15.4482C17.0799 13.8163 19.0417 13.0003 21.3333 13.0003H38.8333C39.7361 10.5003 41.2465 8.48644 43.3646 6.95866C45.4826 5.43088 47.8611 4.66699 50.5 4.66699C53.1389 4.66699 55.5174 5.43088 57.6354 6.95866C59.7535 8.48644 61.2639 10.5003 62.1667 13.0003H79.6667C81.9583 13.0003 83.9201 13.8163 85.5521 15.4482C87.184 17.0802 88 19.042 88 21.3337V46.8545C85.0833 46.16 82.184 46.108 79.3021 46.6982C76.4201 47.2885 73.7639 48.3823 71.3333 49.9795V46.3337H29.6667V54.667H66.0208L57.6875 63.0003H29.6667V71.3337H49.9792C48.3819 73.7642 47.2882 76.4205 46.6979 79.3024C46.1076 82.1843 46.1597 85.0837 46.8542 88.0003Z" fill="#E3E1FF"/>
</g>
</svg>
