<svg width="56" height="107" viewBox="0 0 56 107" fill="none" xmlns="http://www.w3.org/2000/svg">
<g clip-path="url(#clip0_1444_9378)">
<path d="M54.2622 25.3843C53.8399 12.2946 43.248 1.1837 30.4272 0.100448C13.2032 -1.35195 -0.739543 13.1418 2.08639 30.8883C3.75421 41.3365 11.9726 49.9632 22.1515 52.1085C39.5926 55.7879 54.8262 42.7163 54.2622 25.3843ZM26.977 40.2986C19.8533 39.9023 13.8275 33.6085 13.9059 26.3465C13.9963 18.3916 20.2032 12.4186 27.8546 12.4186C35.506 12.4186 42.0898 18.4763 42.0898 26.516C42.0898 34.5556 35.2768 40.7616 26.977 40.2986Z" fill="#524CFF"/>
<path d="M54.5764 100.649C53.8224 99.3751 53.0715 98.1012 52.3265 96.8243C47.6277 88.7635 43.1128 80.6058 38.3295 72.5934C36.4536 69.4496 34.7225 66.5539 31.04 65.398C30.0598 65.0894 29.0435 64.932 28.0271 64.9199H27.9788C27.6983 64.9229 27.4179 64.9411 27.1374 64.9653H27.1163C26.3894 65.0349 25.6656 65.1771 24.9629 65.398C21.2804 66.5539 19.5493 69.4496 17.6734 72.5934C12.8901 80.6058 8.37219 88.7635 3.67637 96.8243C2.93144 98.1012 2.17745 99.3751 1.42648 100.649C0.651385 101.974 -0.615311 103.935 0.352806 105.345L0.401062 105.409C1.26965 106.571 2.97668 106.453 4.25242 106.489C6.0831 106.537 7.92282 106.519 9.74746 106.534C10.8362 106.543 11.9642 106.453 12.9775 106.02C14.7479 105.266 15.6828 103.508 16.5514 101.896C16.8862 101.275 17.2149 100.655 17.5588 100.041C19.6971 96.2676 21.8595 92.455 24.0279 88.7272C24.788 87.4896 25.8315 85.1658 27.2248 84.494C27.4661 84.3791 27.7345 84.3306 28.003 84.3306C28.2714 84.3306 28.5398 84.376 28.7811 84.494C30.1744 85.1658 31.2179 87.4926 31.978 88.7272C34.1464 92.455 36.3119 96.2676 38.4472 100.041C38.791 100.655 39.1197 101.275 39.4545 101.896C40.3231 103.511 41.258 105.266 43.0284 106.02C44.0417 106.449 45.1697 106.543 46.2585 106.534C48.0831 106.522 49.9228 106.54 51.7535 106.489C53.0292 106.456 54.7393 106.571 55.6049 105.409L55.6531 105.345C56.6212 103.932 55.3575 101.974 54.5794 100.649H54.5764Z" fill="#524CFF"/>
</g>
<defs>
<clipPath id="clip0_1444_9378">
<rect width="56" height="106.537" fill="white"/>
</clipPath>
</defs>
</svg>
