<svg width="224" height="40" viewBox="0 0 224 40" fill="none" xmlns="http://www.w3.org/2000/svg">
<path d="M202.75 39.5983C201.408 39.5983 200.374 39.2354 199.648 38.5097C198.958 37.784 198.614 36.7499 198.614 35.4073V4.43713C198.614 3.05826 198.958 2.02411 199.648 1.33468C200.374 0.608954 201.408 0.246094 202.75 0.246094C204.057 0.246094 205.055 0.608954 205.744 1.33468C206.47 2.02411 206.833 3.05826 206.833 4.43713V23.4329H206.941L214.834 14.6698C215.632 13.7626 216.358 13.0914 217.011 12.6559C217.7 12.1842 218.607 11.9483 219.732 11.9483C220.857 11.9483 221.71 12.2386 222.29 12.8192C222.907 13.3998 223.216 14.1074 223.216 14.9419C223.252 15.7402 222.907 16.5567 222.182 17.3912L213.854 26.6986V23.5962L223.107 34.2643C223.796 35.0988 224.087 35.9334 223.978 36.768C223.905 37.6026 223.542 38.292 222.889 38.8363C222.236 39.3443 221.401 39.5983 220.385 39.5983C219.152 39.5983 218.154 39.3624 217.392 38.8907C216.666 38.419 215.922 37.6933 215.16 36.7136L206.941 27.5695H206.833V35.4073C206.833 38.2013 205.472 39.5983 202.75 39.5983Z" fill="black"/>
<path d="M186.176 39.7075C183.273 39.7075 180.733 39.1451 178.556 38.0202C176.415 36.8591 174.764 35.2262 173.603 33.1216C172.441 31.017 171.861 28.5314 171.861 25.6648C171.861 23.5239 172.187 21.6008 172.841 19.8953C173.494 18.1899 174.437 16.7385 175.671 15.541C176.941 14.3436 178.465 13.4364 180.243 12.8196C182.021 12.1664 183.999 11.8398 186.176 11.8398C187.301 11.8398 188.498 11.985 189.768 12.2753C191.038 12.5293 192.29 12.9829 193.524 13.636C194.249 13.9626 194.739 14.4343 194.993 15.0512C195.283 15.6317 195.392 16.2486 195.32 16.9017C195.247 17.5186 195.011 18.081 194.612 18.589C194.249 19.0608 193.778 19.3873 193.197 19.5688C192.616 19.7139 191.963 19.6051 191.238 19.2422C190.548 18.8431 189.822 18.5528 189.06 18.3713C188.335 18.1899 187.645 18.0992 186.992 18.0992C185.904 18.0992 184.942 18.2806 184.107 18.6435C183.273 18.9701 182.565 19.4599 181.985 20.1131C181.44 20.7299 181.005 21.5101 180.678 22.4535C180.388 23.3969 180.243 24.4855 180.243 25.7193C180.243 28.1141 180.823 30.001 181.985 31.3799C183.182 32.7225 184.851 33.3938 186.992 33.3938C187.645 33.3938 188.335 33.3212 189.06 33.176C189.786 32.9946 190.512 32.7043 191.238 32.3052C191.963 31.9423 192.616 31.8516 193.197 32.033C193.778 32.2145 194.231 32.5592 194.558 33.0672C194.921 33.5389 195.12 34.1013 195.156 34.7545C195.229 35.3713 195.12 35.9882 194.83 36.6051C194.576 37.1856 194.104 37.6392 193.415 37.9658C192.181 38.5827 190.947 39.0181 189.714 39.2721C188.48 39.5624 187.301 39.7075 186.176 39.7075Z" fill="black"/>
<path d="M154.505 39.7075C151.638 39.7075 149.135 39.1451 146.994 38.0202C144.889 36.8954 143.256 35.2806 142.095 33.176C140.934 31.0714 140.354 28.5859 140.354 25.7193C140.354 23.5784 140.68 21.6552 141.333 19.9498C141.986 18.2443 142.93 16.7929 144.164 15.5955C145.434 14.3617 146.939 13.4364 148.681 12.8196C150.423 12.1664 152.364 11.8398 154.505 11.8398C157.372 11.8398 159.857 12.4023 161.962 13.5271C164.103 14.652 165.754 16.2486 166.915 18.3169C168.112 20.3852 168.711 22.8527 168.711 25.7193C168.711 27.8964 168.366 29.8377 167.677 31.5432C167.024 33.2486 166.08 34.7182 164.847 35.9519C163.613 37.1856 162.107 38.1291 160.329 38.7822C158.587 39.3991 156.646 39.7075 154.505 39.7075ZM154.505 33.557C155.702 33.557 156.737 33.2668 157.608 32.6862C158.478 32.1056 159.168 31.2529 159.676 30.128C160.184 28.9669 160.438 27.4973 160.438 25.7193C160.438 23.0704 159.894 21.1291 158.805 19.8953C157.716 18.6253 156.283 17.9903 154.505 17.9903C153.344 17.9903 152.31 18.2625 151.403 18.8068C150.532 19.3511 149.842 20.2038 149.334 21.3649C148.863 22.4898 148.627 23.9412 148.627 25.7193C148.627 28.3681 149.171 30.3457 150.26 31.652C151.348 32.922 152.763 33.557 154.505 33.557Z" fill="black"/>
<path d="M121.759 39.7066C120.235 39.7066 118.674 39.5796 117.078 39.3256C115.518 39.1079 114.012 38.7813 112.56 38.3459C111.145 37.9105 109.875 37.3662 108.75 36.713C107.952 36.2776 107.389 35.7152 107.063 35.0257C106.736 34.3 106.609 33.5743 106.682 32.8486C106.791 32.1229 107.063 31.4879 107.498 30.9436C107.97 30.363 108.551 30.0001 109.24 29.855C109.966 29.6736 110.764 29.8006 111.635 30.236C113.123 31.0706 114.737 31.6874 116.479 32.0866C118.257 32.4857 120.017 32.6853 121.759 32.6853C124.408 32.6853 126.295 32.2861 127.419 31.4879C128.544 30.6533 129.107 29.6191 129.107 28.3854C129.107 27.3331 128.708 26.4985 127.909 25.8817C127.111 25.2648 125.714 24.7387 123.718 24.3032L117.568 22.9969C114.084 22.2712 111.49 21.0375 109.784 19.2957C108.115 17.5177 107.281 15.1954 107.281 12.3288C107.281 10.5145 107.662 8.86351 108.424 7.37578C109.186 5.88806 110.256 4.5999 111.635 3.51132C113.014 2.42274 114.647 1.58816 116.534 1.00758C118.457 0.427007 120.561 0.136719 122.847 0.136719C124.879 0.136719 126.875 0.39072 128.835 0.898724C130.794 1.37044 132.518 2.07802 134.005 3.02146C134.731 3.45689 135.221 4.01932 135.475 4.70876C135.765 5.36191 135.856 6.0332 135.747 6.72263C135.674 7.37578 135.402 7.95636 134.931 8.46436C134.495 8.97237 133.933 9.29894 133.243 9.44409C132.554 9.58923 131.719 9.42594 130.74 8.95423C129.542 8.33736 128.272 7.88379 126.93 7.5935C125.587 7.30321 124.208 7.15807 122.793 7.15807C121.269 7.15807 119.963 7.35764 118.874 7.75679C117.822 8.15593 117.005 8.71837 116.425 9.44409C115.88 10.1698 115.608 11.0044 115.608 11.9478C115.608 13.0001 115.989 13.8528 116.751 14.506C117.513 15.1591 118.838 15.6853 120.725 16.0844L126.875 17.3907C130.431 18.1527 133.08 19.3865 134.822 21.0919C136.563 22.7611 137.434 24.9745 137.434 27.7323C137.434 29.5466 137.071 31.1976 136.346 32.6853C135.62 34.1367 134.568 35.3886 133.189 36.4409C131.81 37.4932 130.159 38.3096 128.236 38.8902C126.313 39.4345 124.154 39.7066 121.759 39.7066Z" fill="black"/>
<path d="M96.9018 39.3901C95.3946 39.3901 94.1888 38.9379 93.2844 38.0335C92.4177 37.1292 91.9844 35.961 91.9844 34.5291C91.9844 33.1349 92.4177 32.0045 93.2844 31.1378C94.1888 30.2334 95.3946 29.7812 96.9018 29.7812C98.4091 29.7812 99.5772 30.2334 100.406 31.1378C101.273 32.0045 101.706 33.1349 101.706 34.5291C101.706 35.961 101.273 37.1292 100.406 38.0335C99.5772 38.9379 98.4091 39.3901 96.9018 39.3901Z" fill="#4C40D1"/>
<path d="M66.4393 39.5983C65.0968 39.5983 64.0626 39.2355 63.3369 38.5097C62.6475 37.784 62.3027 36.7499 62.3027 35.4073V4.43713C62.3027 3.05826 62.6475 2.02411 63.3369 1.33468C64.0626 0.608954 65.0968 0.246094 66.4393 0.246094C67.7456 0.246094 68.7435 0.608954 69.4329 1.33468C70.1587 2.02411 70.5215 3.05826 70.5215 4.43713V23.4329H70.6304L78.5226 14.6698C79.3209 13.7626 80.0466 13.0914 80.6998 12.6559C81.3892 12.1842 82.2963 11.9483 83.4212 11.9483C84.5461 11.9483 85.3988 12.2386 85.9794 12.8192C86.5962 13.3998 86.9047 14.1074 86.9047 14.9419C86.941 15.7402 86.5962 16.5567 85.8705 17.3913L77.5429 26.6986V23.5962L86.7958 34.2643C87.4852 35.0988 87.7755 35.9334 87.6667 36.768C87.5941 37.6026 87.2312 38.292 86.5781 38.8363C85.9249 39.3443 85.0904 39.5983 84.0744 39.5983C82.8406 39.5983 81.8428 39.3624 81.0808 38.8907C80.355 38.419 79.6112 37.6933 78.8492 36.7136L70.6304 27.5695H70.5215V35.4073C70.5215 38.2013 69.1608 39.5983 66.4393 39.5983Z" fill="black"/>
<path d="M41.0393 39.7075C39.0799 39.7075 37.32 39.3265 35.7597 38.5645C34.1994 37.8025 32.9838 36.7684 32.1129 35.4621C31.2421 34.1558 30.8066 32.6862 30.8066 31.0533C30.8066 29.0939 31.3146 27.5517 32.3307 26.4268C33.3467 25.2657 34.9977 24.4492 37.2837 23.9775C39.5697 23.4695 42.5996 23.2155 46.3734 23.2155H49.2581V27.461H46.4278C44.5772 27.461 43.0713 27.5698 41.9102 27.7876C40.7853 27.969 39.9689 28.2956 39.4609 28.7673C38.9891 29.239 38.7533 29.8922 38.7533 30.7267C38.7533 31.7427 39.098 32.5773 39.7874 33.2305C40.5132 33.8836 41.5473 34.2102 42.8899 34.2102C43.9422 34.2102 44.8675 33.9743 45.6658 33.5026C46.5004 32.9946 47.1535 32.3233 47.6252 31.4887C48.0969 30.6179 48.3328 29.6381 48.3328 28.5496V22.2902C48.3328 20.6936 47.9699 19.5688 47.2442 18.9156C46.5185 18.2262 45.2848 17.8815 43.543 17.8815C42.5633 17.8815 41.4929 18.0085 40.3317 18.2625C39.2069 18.4802 37.955 18.8612 36.5761 19.4055C35.7778 19.7683 35.0702 19.8591 34.4534 19.6776C33.8365 19.4599 33.3648 19.0971 33.0382 18.589C32.7117 18.0448 32.5484 17.4642 32.5484 16.8473C32.5484 16.1942 32.7298 15.5773 33.0927 14.9967C33.4555 14.3799 34.0542 13.9263 34.8888 13.636C36.5943 12.9466 38.1908 12.4748 39.6786 12.2208C41.2026 11.9668 42.5996 11.8398 43.8696 11.8398C46.6636 11.8398 48.9497 12.2571 50.7277 13.0917C52.542 13.89 53.9027 15.1419 54.8099 16.8473C55.717 18.5165 56.1706 20.6755 56.1706 23.3244V35.4076C56.1706 36.7502 55.844 37.7844 55.1909 38.5101C54.5377 39.2358 53.5943 39.5987 52.3605 39.5987C51.1268 39.5987 50.1652 39.2358 49.4758 38.5101C48.8227 37.7844 48.4961 36.7502 48.4961 35.4076V33.3938L48.8771 33.7203C48.6594 34.9541 48.1877 36.0245 47.4619 36.9316C46.7725 37.8025 45.8835 38.4919 44.7949 38.9999C43.7063 39.4717 42.4545 39.7075 41.0393 39.7075Z" fill="black"/>
<path d="M16.0158 39.5983C14.6369 39.5983 13.5846 39.2173 12.8589 38.4553C12.1331 37.6933 11.7703 36.6047 11.7703 35.1896V19.4051L13.512 24.2493L0.666756 6.01557C0.158751 5.25357 -0.0589648 4.43713 0.0136073 3.56627C0.0861793 2.65912 0.44904 1.87897 1.10219 1.22582C1.75534 0.572669 2.68063 0.246094 3.87807 0.246094C4.74894 0.246094 5.52909 0.46381 6.21852 0.899243C6.94424 1.33467 7.63368 2.02411 8.28682 2.96755L16.9955 15.5407H15.2537L23.9624 2.96755C24.6518 1.98782 25.3231 1.29839 25.9763 0.899243C26.6657 0.46381 27.464 0.246094 28.3711 0.246094C29.5323 0.246094 30.4395 0.554525 31.0926 1.17139C31.7457 1.75196 32.0905 2.49583 32.1268 3.40298C32.163 4.27384 31.8546 5.181 31.2015 6.12443L18.5195 24.2493L20.2068 19.4051V35.1896C20.2068 38.1287 18.8098 39.5983 16.0158 39.5983Z" fill="black"/>
</svg>
